{"title":"Covert Affairs 2013 SE04 TVserie Complete AFG Klam","uid":9500479,"size":5741142816,"categoryP":"video","categoryS":"movies","magnet":"?xt=urn:btih:957c02e01f9cde77e82f9395ab6e3804eb02c3ce&amp;dn=Covert+Affairs+2013+SE04+TVserie+Complete+AFG+Klam&amp;tr=udp%3A%2F%2Ftracker.openbittorrent.com%3A80&amp;tr=udp%3A%2F%2Fopen.demonii.com%3A1337&amp;tr=udp%3A%2F%2Ftracker.coppersurfer.tk%3A6969&amp;tr=udp%3A%2F%2Fexodus.desync.com%3A6969","seeders":3,"leechers":2,"uploader":"Klambake","files":-1,"time":1390216480,"description":"Season SE04 Complete, Special thx 2 AFG\n &lt;a href=&quot;\nhttp://www.imdb.com/title/tt1495708&quot; rel=&quot;nofollow&quot; target=&quot;_NEW&quot;&gt;\nhttp://www.imdb.com/title/tt1495708&lt;/a&gt;\t\n\n[size=85][color=#ff0033]Gecontroleerd door ChefKe[/color][/size]\n\n--------------------- Dutch Friends 4ever ---------------------\n---------------------------------------------------------------\n- Bezoek ook eens mijn vrienden op: &lt;a href=&quot; http://www.Film-Test.nl&quot; rel=&quot;nofollow&quot; target=&quot;_NEW&quot;&gt; http://www.Film-Test.nl&lt;/a&gt; --\n----- voor mijn Nederlandse Sync. ondertitels ---- en meer ----\n------- http://www.Film-Test.nl ---- Over Films en meer -------\n---------------------------------------------------------------\n\nGeneral:\n\nComplete name                    : Covert Affairs SE04 AFGCovert Affairs S04E01.avi\nFormat                           : AVI\nFormat/Info                      : Audio Video Interleave\nFile size                        : 339 MiB\nDuration                         : 41mn 36s\nOverall bit rate                 : 1 140 Kbps\n\nVideo:\n\nFormat                           : MPEG-4 Visual\nFormat profile                   : Advanced Simple@L5\nFormat settings, BVOP            : 2\nFormat settings, QPel            : No\nFormat settings, GMC             : No warppoints\nFormat settings, Matrix          : Default (H.263)\nCodec ID                         : XVID\nCodec ID/Hint                    : XviD\nDuration                         : 41mn 36s\nBit rate                         : 999 Kbps\nWidth                            : 640 pixels\nHeight                           : 360 pixels\nDisplay aspect ratio             : 16:9\nFrame rate                       : 23.976 fps\nColor space                      : YUV\nChroma subsampling               : 4:2:0\nBit depth                        : 8 bits\nScan type                        : Progressive\nCompression mode                 : Lossy\nBits/(Pixel*Frame)               : 0.181\nStream size                      : 297 MiB (88%)\nWriting library                  : XviD 64\n\nAudio:\n\nFormat                           : MPEG Audio\nFormat version                   : Version 1\nFormat profile                   : Layer 3\nMode                             : Joint stereo\nMode extension                   : MS Stereo\nCodec ID                         : 55\nCodec ID/Hint                    : MP3\nDuration                         : 41mn 36s\nBit rate mode                    : Variable\nBit rate                         : 128 Kbps\nChannel(s)                       : 2 channels\nSampling rate                    : 48.0 KHz\nCompression mode                 : Lossy\nStream size                      : 38.1 MiB (11%)\nAlignment                        : Aligned on interleaves\nInterleave, duration             : 24 ms (0.58 video frame)\nInterleave, preload duration     : 178 ms\nTitle                            : Covert.Affairs.S04E01.HDTV.XviD-AFG_360p.audio","torrent":{"xt":"urn:btih:957c02e01f9cde77e82f9395ab6e3804eb02c3ce","amp;dn":"Covert+Affairs+2013+SE04+TVserie+Complete+AFG+Klam","amp;tr":["udp%3A%2F%2Ftracker.openbittorrent.com%3A80","udp%3A%2F%2Fopen.demonii.com%3A1337","udp%3A%2F%2Ftracker.coppersurfer.tk%3A6969","udp%3A%2F%2Fexodus.desync.com%3A6969"],"infoHash":"957c02e01f9cde77e82f9395ab6e3804eb02c3ce","infoHashBuffer":{"type":"Buffer","data":[149,124,2,224,31,156,222,119,232,47,147,149,171,110,56,4,235,2,195,206]},"announce":[],"urlList":[]}}